<?xml version="1.0" standalone="no"?><!DOCTYPE svg PUBLIC "-//W3C//DTD SVG 1.1//EN" "http://www.w3.org/Graphics/SVG/1.1/DTD/svg11.dtd"><svg t="1703472702887" class="icon" viewBox="0 0 1024 1024" version="1.1" xmlns="http://www.w3.org/2000/svg" p-id="1678" xmlns:xlink="http://www.w3.org/1999/xlink" width="200" height="200"><path d="M512 512m-448 0a448 448 0 1 0 896 0 448 448 0 1 0-896 0Z" fill="#B2E8FF" p-id="1679"></path><path d="M783.104 347.136H360.32v-37.888c0-20.736 16.896-37.504 37.504-37.504h244.864c4.224 0 7.68-3.456 7.68-7.68s-3.456-7.68-7.68-7.68H397.824c-29.184 0-52.864 23.68-52.864 52.864v37.888h-78.336c-32.512 0-58.88 26.368-58.88 58.88v268.928c0 32.512 26.368 58.88 58.88 58.88h516.48c32.512 0 58.88-26.368 58.88-58.88V406.016c0-32.512-26.496-58.88-58.88-58.88zM724.096 430.08v32.512h-32.512V430.08h32.512z m-307.072 32.512V430.08h32.512v32.512h-32.512z m91.52 0V430.08h32.512v32.512h-32.512z m91.52 0V430.08h32.512v32.512h-32.512z m60.032 168.96v32.512H389.504v-32.512h270.592zM358.016 430.08v32.512h-32.512V430.08h32.512z" fill="#1A6C91" opacity=".5" p-id="1680"></path><path d="M339.84 349.696c-4.224 0-7.68-3.456-7.68-7.68v-45.568c0-29.184 23.68-52.864 52.864-52.864h244.864c4.224 0 7.68 3.456 7.68 7.68s-3.456 7.68-7.68 7.68H385.024c-20.736 0-37.504 16.896-37.504 37.504v45.568c0 4.224-3.456 7.68-7.68 7.68z" fill="#1A6C91" p-id="1681"></path><path d="M770.304 342.016H253.696c-28.16 0-51.2 23.04-51.2 51.2v268.928c0 28.16 23.04 51.2 51.2 51.2h516.48c28.16 0 51.2-23.04 51.2-51.2V393.216c0.128-28.16-22.912-51.2-51.072-51.2z m-190.72 67.584h47.872v47.872h-47.872V409.6z m-91.52 0h47.872v47.872h-47.872V409.6z m-91.52 0h47.872v47.872h-47.872V409.6z m-43.648 47.872h-47.872V409.6h47.872v47.872z m302.08 201.472H369.024v-47.872h285.952v47.872z m64-201.472h-47.872V409.6h47.872v47.872z" fill="#FFFFFF" p-id="1682"></path><path d="M770.304 721.024H253.696c-32.512 0-58.88-26.368-58.88-58.88V393.216c0-32.512 26.368-58.88 58.88-58.88h516.48c32.512 0 58.88 26.368 58.88 58.88v268.928c0.128 32.512-26.368 58.88-58.752 58.88zM253.696 349.696c-23.936 0-43.52 19.584-43.52 43.52v268.928c0 23.936 19.584 43.52 43.52 43.52h516.48c23.936 0 43.52-19.584 43.52-43.52V393.216c0-23.936-19.584-43.52-43.52-43.52H253.696z m401.28 316.928H369.024c-4.224 0-7.68-3.456-7.68-7.68v-47.872c0-4.224 3.456-7.68 7.68-7.68h285.952c4.224 0 7.68 3.456 7.68 7.68v47.872c0 4.352-3.456 7.68-7.68 7.68z m-278.272-15.36h270.592v-32.512H376.704v32.512z m342.272-186.112h-47.872c-4.224 0-7.68-3.456-7.68-7.68V409.6c0-4.224 3.456-7.68 7.68-7.68h47.872c4.224 0 7.68 3.456 7.68 7.68v47.872c0 4.224-3.456 7.68-7.68 7.68z m-40.192-15.36h32.512V417.28h-32.512v32.512z m-51.328 15.36h-47.872c-4.224 0-7.68-3.456-7.68-7.68V409.6c0-4.224 3.456-7.68 7.68-7.68h47.872c4.224 0 7.68 3.456 7.68 7.68v47.872c0 4.224-3.456 7.68-7.68 7.68z m-40.192-15.36h32.512V417.28h-32.512v32.512z m-51.328 15.36h-47.872c-4.224 0-7.68-3.456-7.68-7.68V409.6c0-4.224 3.456-7.68 7.68-7.68h47.872c4.224 0 7.68 3.456 7.68 7.68v47.872c0 4.224-3.456 7.68-7.68 7.68z m-40.192-15.36h32.512V417.28h-32.512v32.512z m-51.328 15.36h-47.872c-4.224 0-7.68-3.456-7.68-7.68V409.6c0-4.224 3.456-7.68 7.68-7.68h47.872c4.224 0 7.68 3.456 7.68 7.68v47.872c0 4.224-3.456 7.68-7.68 7.68z m-40.192-15.36h32.512V417.28h-32.512v32.512z m-51.328 15.36h-47.872c-4.224 0-7.68-3.456-7.68-7.68V409.6c0-4.224 3.456-7.68 7.68-7.68h47.872c4.224 0 7.68 3.456 7.68 7.68v47.872c0 4.224-3.456 7.68-7.68 7.68z m-40.192-15.36h32.512V417.28h-32.512v32.512z" fill="#1A6C91" p-id="1683"></path></svg>